<svg width="235" height="40" viewBox="0 0 235 40" fill="none" xmlns="http://www.w3.org/2000/svg">
<path d="M43.0662 2.44661C43.2409 3.08723 45.4442 19.0735 45.2307 19.1415C45.0172 19.2094 41.1346 22.199 41.1249 23.1211C41.1152 24.0432 44.0368 35.982 44.0368 36.5449C43.8101 37.4327 43.4845 38.2922 43.0662 39.1074L4.66797 38.6803L5.82302 36.1373L14.3064 33.2254L17.82 31.2356L19.9846 27.6831L32.0301 14.1039L35.2332 8.13452L42.6197 2.01953L43.0662 2.44661Z" fill="white"/>
<path d="M52.1909 20.5684H57.1994L63.9938 21.8399L62.5767 30.4397C62.5767 30.4397 60.8878 32.148 61.3052 33.2836C61.5335 34.4519 61.4084 35.6617 60.946 36.7585C60.7228 37.3991 59.0921 38.4668 59.0921 38.4668L46.9301 38.826L45.2412 27.6637L52.1909 20.5684Z" fill="white"/>
<path d="M86.5319 34.9428L80.9702 31.7979L76.9809 26.4303L69.9147 22.5478L58.0924 19.8494L52.7733 10.2014L42.9893 0L41.7372 1.11623L33.9721 7.76506L32.2638 12.1329L23.4214 21.0821L15.5301 31.2058L9.56073 33.3412L0 39.4174H88.677L86.5319 34.9428ZM41.2131 6.79443L41.3295 12.2203L37.9809 19.4127L35.1272 22.3246L39.0097 28.6822L41.3781 37.942H4.85316L10.4537 34.3701L16.9181 32.2347L25.0714 21.6354L33.5354 13.8024L34.9428 8.5804L41.1742 3.5234L41.2131 6.79443ZM55.8987 38.0003H50.3467L47.2989 29.5461L49.5023 25.1685L57.2091 21.1016L60.8781 21.9654L57.18 30.6235L59.2765 34.6031L55.8987 38.0003Z" fill="url(#paint0_linear_1280_1771)"/>
<path d="M104.587 39.3306V39.4082H91.4057L90.2701 36.9525H104.519C104.519 37.1369 104.519 37.3214 104.519 37.5155C104.519 37.7096 104.519 37.6902 104.519 37.7776C104.577 38.292 104.587 38.8258 104.587 39.3306ZM103.995 33.0991H88.4647L89.7363 35.9139H104.412C104.315 34.9433 104.17 34.0212 103.995 33.0991ZM103.024 29.2166H82.2138L82.5439 29.6728L86.4264 31.8276H103.742C103.539 30.9831 103.315 30.0902 103.044 29.2554L103.024 29.2166ZM101.549 25.3341H79.3408L81.1656 27.7703H102.519C102.267 27.023 101.918 26.2076 101.568 25.4117L101.549 25.3341ZM99.4911 21.4515H72.4687L77.4383 23.7228H100.801C100.394 23.0531 99.9764 22.3251 99.5105 21.5583L99.4911 21.4515ZM96.7151 17.569H59.2681L59.5884 18.1514L66.2275 19.6753H98.3458C97.841 19.1026 97.3072 18.4426 96.7345 17.7146L96.7151 17.569ZM92.9393 13.6865H57.1521L58.2198 15.6277H95.0068C94.3565 15.1327 93.6673 14.4824 92.9588 13.8612L92.9393 13.6865ZM87.5426 9.80393H55.0361L56.0068 11.5705H90.3283C89.4354 11.1531 88.5133 10.561 87.562 10.0175L87.5426 9.80393ZM58.7537 7.7656H82.8448C78.9933 6.2893 74.9045 5.52942 70.7798 5.52344H70.0324C69.7024 5.52344 69.3821 5.52344 69.0618 5.52344C67.4318 5.60845 65.81 5.80955 64.2086 6.12523C62.3471 6.51659 60.5223 7.06536 58.7537 7.7656Z" fill="url(#paint1_linear_1280_1771)"/>
<mask id="mask0_1280_1771" style="mask-type:luminance" maskUnits="userSpaceOnUse" x="55" y="5" width="50" height="35">
<path d="M72.468 21.5576H99.5098C99.966 22.2953 100.393 23.0524 100.801 23.8289H77.4377L72.468 21.5576ZM59.2674 17.6751H96.7338C97.3065 18.3546 97.8404 19.0631 98.3451 19.7814H66.2269L59.5877 18.2575L59.2674 17.6751ZM57.1514 13.7926H92.9581C93.6666 14.4138 94.3558 15.0641 95.0061 15.7338H58.2385L57.1514 13.7926ZM82.2132 29.2548H103.043C103.315 30.1089 103.538 30.9825 103.742 31.8658H86.3869L82.5044 29.711L82.2132 29.2548ZM79.3013 25.3722H101.529C101.888 26.1681 102.228 26.9835 102.499 27.8085H81.1455L79.3013 25.3722ZM104.412 35.9133H89.7356L88.4155 33.0985H103.946C104.169 34.0206 104.314 34.9427 104.412 35.9133ZM82.8441 7.76495H58.753C60.5325 7.07965 62.3672 6.54712 64.2371 6.17312C65.8384 5.85744 67.4602 5.65633 69.0902 5.57132C69.4202 5.57132 69.7405 5.57132 70.0608 5.57132H70.8082C74.9201 5.56536 78.9987 6.30871 82.8441 7.76495ZM104.586 39.3299V39.4076H91.4051L90.2694 36.9519H104.518C104.518 37.1363 104.518 37.3207 104.518 37.5148C104.518 37.709 104.518 37.6896 104.518 37.7769C104.577 38.2914 104.586 38.8252 104.586 39.3299ZM56.0546 11.7834L55.084 10.0168H87.5614C88.532 10.5604 89.4347 11.1525 90.3277 11.7834H56.0546Z" fill="white"/>
</mask>
<g mask="url(#mask0_1280_1771)">
<path opacity="0.5" d="M91.2869 52.337C104.812 52.337 115.776 41.3729 115.776 27.848C115.776 14.323 104.812 3.35889 91.2869 3.35889C77.762 3.35889 66.7979 14.323 66.7979 27.848C66.7979 41.3729 77.762 52.337 91.2869 52.337Z" fill="url(#paint2_radial_1280_1771)"/>
</g>
<path d="M131.812 1.16504V21.4416H128.259V12.1429H115.437V21.4416H111.875V1.16504H115.437V8.54185H128.259V1.16504H131.812Z" fill="#412F51"/>
<path d="M138.228 1.16504H134.676V21.4319H138.228V1.16504Z" fill="#412F51"/>
<path d="M157.523 17.8308V21.4319H147.438C146.599 21.4227 145.77 21.2463 145 20.913C144.23 20.5797 143.534 20.0961 142.953 19.4906C141.757 18.2767 141.085 16.6424 141.08 14.9383V1.16504H144.623V15.3266C144.709 15.9503 144.995 16.5292 145.438 16.9766C145.87 17.4282 146.441 17.7221 147.059 17.8114L157.523 17.8308Z" fill="#412F51"/>
<path d="M176.819 17.8308V21.4319H166.725C165.886 21.4211 165.058 21.244 164.288 20.9107C163.518 20.5775 162.822 20.0948 162.241 19.4906C161.049 18.2738 160.377 16.6414 160.367 14.9383V1.16504H163.92V15.3266C164.005 15.963 164.299 16.5534 164.754 17.0058C165.199 17.4596 165.784 17.7503 166.414 17.8308H176.819Z" fill="#412F51"/>
<path d="M194.252 1.16504V4.81462H186.07V21.461H182.517V4.81462H174.335V1.16504H194.252Z" fill="#412F51"/>
<path d="M234.573 6.63941C234.571 7.68674 234.275 8.71251 233.719 9.59984C233.165 10.4897 232.366 11.2008 231.418 11.6479C230.934 11.887 230.412 12.0382 229.875 12.0944H220.169V21.3542H216.597V1.16504H229.215C229.927 1.16581 230.633 1.30871 231.289 1.58538C231.946 1.86204 232.541 2.26691 233.039 2.77629C234.024 3.82124 234.573 5.20322 234.573 6.63941ZM231.02 6.63941C231.016 6.13824 230.817 5.65827 230.467 5.29993C230.119 4.97371 229.663 4.78712 229.186 4.77579H220.188V8.52243H229.186C229.445 8.52339 229.701 8.46355 229.933 8.34772C230.255 8.19157 230.527 7.94974 230.719 7.64887C230.903 7.34342 231.003 6.99549 231.011 6.63941H231.02Z" fill="#412F51"/>
<path d="M128.259 23.6836L126.813 26.5955L120.038 39.9611L113.341 26.5955L111.875 23.6836H115.078L116.544 26.5955L120.038 33.5549L123.532 26.5955L124.998 23.6836H128.259Z" fill="#412F51"/>
<path d="M131.444 28.0707V29.5849H141.713V32.4968H131.444V35.5543C131.443 35.7507 131.482 35.9452 131.557 36.1268C131.632 36.3083 131.742 36.4733 131.88 36.6123C132.015 36.7509 132.177 36.861 132.355 36.936C132.534 37.011 132.725 37.0495 132.919 37.0491H144.566V39.961H132.919C132.348 39.9604 131.782 39.8459 131.255 39.6243C130.729 39.4026 130.252 39.0782 129.852 38.67C129.04 37.8361 128.587 36.7178 128.59 35.5543V28.0707C128.59 26.9076 129.042 25.7901 129.852 24.955C130.252 24.5468 130.729 24.2224 131.255 24.0008C131.782 23.7791 132.348 23.6647 132.919 23.6641H144.566V26.576H132.919C132.725 26.5756 132.534 26.614 132.355 26.6891C132.177 26.7641 132.015 26.8742 131.88 27.0127C131.742 27.1518 131.632 27.3167 131.557 27.4983C131.482 27.6798 131.443 27.8743 131.444 28.0707Z" fill="#412F51"/>
<path d="M162.929 23.6641V39.961L160.066 37.7091L149.758 29.6432V39.961H146.904V23.7223L149.758 25.9742L160.066 34.1372V23.6641H162.929Z" fill="#412F51"/>
<path d="M181.227 23.6836V26.5955H174.666V39.9611H171.803V26.5955H165.222V23.6836H181.227Z" fill="#412F51"/>
<path d="M199.561 23.6641V31.8174C199.564 33.9699 198.72 36.0372 197.212 37.5732C196.475 38.3293 195.593 38.9301 194.619 39.3403C193.646 39.7505 192.6 39.9618 191.544 39.9618C190.487 39.9618 189.442 39.7505 188.468 39.3403C187.495 38.9301 186.613 38.3293 185.875 37.5732C184.374 36.0339 183.534 33.9679 183.536 31.8174V23.6641H186.361V31.8174C186.355 33.2003 186.895 34.5295 187.865 35.5155C188.339 36.0009 188.905 36.3867 189.53 36.6501C190.155 36.9135 190.827 37.0492 191.505 37.0492C192.183 37.0492 192.855 36.9135 193.48 36.6501C194.105 36.3867 194.671 36.0009 195.145 35.5155C196.117 34.5305 196.661 33.2015 196.659 31.8174V23.6641H199.561Z" fill="#412F51"/>
<path d="M214.8 37.0491L216.275 39.961H213.072L211.597 37.0491L210.073 33.9722V33.8557C209.815 33.4489 209.458 33.1148 209.034 32.8851C208.607 32.6379 208.121 32.5104 207.627 32.5162H204.715V39.9998H201.891V23.6641H212.005C213.152 23.6784 214.248 24.1459 215.052 24.9647C215.748 25.6824 216.183 26.6124 216.289 27.6064C216.394 28.6003 216.164 29.601 215.635 30.4488C215.304 30.9941 214.853 31.4568 214.317 31.8016C213.78 32.1464 213.172 32.3642 212.538 32.4386L214.8 37.0491ZM211.966 29.5655C212.168 29.5654 212.367 29.5189 212.548 29.4296C212.813 29.3159 213.04 29.127 213.198 28.8861C213.353 28.6422 213.434 28.3592 213.431 28.0707C213.422 27.6733 213.266 27.2933 212.995 27.003C212.857 26.8682 212.696 26.7596 212.519 26.6827C212.343 26.6137 212.155 26.5775 211.966 26.576H204.715V29.5655H211.966Z" fill="#412F51"/>
<path d="M221.421 28.0707V29.5849H231.729V32.4968H221.421V35.5543C221.421 35.7507 221.459 35.9452 221.534 36.1268C221.609 36.3083 221.719 36.4733 221.858 36.6123C221.993 36.7509 222.154 36.861 222.333 36.936C222.511 37.011 222.703 37.0495 222.896 37.0491H234.544V39.961H222.896C222.325 39.9604 221.76 39.8459 221.233 39.6243C220.706 39.4026 220.229 39.0782 219.829 38.67C219.018 37.8361 218.565 36.7178 218.567 35.5543V28.0707C218.567 26.9076 219.02 25.7901 219.829 24.955C220.229 24.5468 220.706 24.2224 221.233 24.0008C221.76 23.7791 222.325 23.6647 222.896 23.6641H234.544V26.576H222.896C222.703 26.5756 222.511 26.614 222.333 26.6891C222.154 26.7641 221.993 26.8742 221.858 27.0127C221.719 27.1518 221.609 27.3167 221.534 27.4983C221.459 27.6798 221.421 27.8743 221.421 28.0707Z" fill="#412F51"/>
<path d="M204.581 1.16504C202.603 1.17525 200.674 1.78436 199.048 2.91218C197.404 4.03143 196.128 5.61187 195.379 7.45474C194.632 9.29745 194.437 11.3181 194.82 13.2695C195.203 15.2209 196.146 17.0184 197.534 18.4423C198.922 19.853 200.7 20.8164 202.64 21.2086C204.569 21.6051 206.573 21.4054 208.386 20.6359C210.213 19.8636 211.77 18.5664 212.86 16.9087C214.138 14.9546 214.709 12.6228 214.479 10.2997C214.25 7.97658 213.233 5.8016 211.599 4.13518C210.685 3.19892 209.593 2.45408 208.389 1.94413C207.184 1.43418 205.889 1.16933 204.581 1.16504ZM204.581 17.8114C203.311 17.8087 202.07 17.4268 201.019 16.7146C199.963 15.9977 199.142 14.9846 198.66 13.8027C198.175 12.6096 198.047 11.3012 198.291 10.0366C198.534 8.78262 199.141 7.62816 200.037 6.71814C200.934 5.80811 202.079 5.18305 203.329 4.92139C204.574 4.66824 205.866 4.79679 207.037 5.29023C208.222 5.78467 209.236 6.61882 209.949 7.68769C210.649 8.76544 211.023 10.0227 211.026 11.3082C211.032 13.0343 210.359 14.6936 209.153 15.9284C208.562 16.5349 207.858 17.0187 207.08 17.3519C206.302 17.685 205.466 17.861 204.62 17.8696L204.581 17.8114Z" fill="#412F51"/>
<defs>
<linearGradient id="paint0_linear_1280_1771" x1="33.2539" y1="58.6165" x2="61.0625" y2="10.4343" gradientUnits="userSpaceOnUse">
<stop stop-color="#62CCF4"/>
<stop offset="1" stop-color="#0365AE"/>
</linearGradient>
<linearGradient id="paint1_linear_1280_1771" x1="79.8164" y1="39.4082" x2="79.8164" y2="5.52344" gradientUnits="userSpaceOnUse">
<stop stop-color="#D32D59"/>
<stop offset="1" stop-color="#F56B44"/>
</linearGradient>
<radialGradient id="paint2_radial_1280_1771" cx="0" cy="0" r="1" gradientUnits="userSpaceOnUse" gradientTransform="translate(91.2869 27.848) scale(24.4891)">
<stop stop-color="white" stop-opacity="0"/>
<stop offset="0.26" stop-color="white" stop-opacity="0.01"/>
<stop offset="0.4" stop-color="white" stop-opacity="0.04"/>
<stop offset="0.51" stop-color="white" stop-opacity="0.09"/>
<stop offset="0.6" stop-color="white" stop-opacity="0.17"/>
<stop offset="0.69" stop-color="white" stop-opacity="0.26"/>
<stop offset="0.76" stop-color="white" stop-opacity="0.38"/>
<stop offset="0.83" stop-color="white" stop-opacity="0.53"/>
<stop offset="0.9" stop-color="white" stop-opacity="0.69"/>
<stop offset="0.96" stop-color="white" stop-opacity="0.87"/>
<stop offset="1" stop-color="white"/>
</radialGradient>
</defs>
</svg>